<svg width="102" height="66" viewBox="0 0 102 66" fill="none" xmlns="http://www.w3.org/2000/svg">
<path fill-rule="evenodd" clip-rule="evenodd" d="M101.716 34.7072L90.0758 3.11919C89.653 1.97139 88.8101 1.05779 87.7025 0.546592C86.595 0.0353922 85.3557 -0.0126078 84.2124 0.412192L27.4515 21.4934C26.3082 21.918 25.3982 22.7642 24.8888 23.8758C24.3796 24.9876 24.332 26.232 24.7549 27.3796L36.3955 58.9676C36.8182 60.1154 37.6611 61.029 38.7688 61.5404C39.3764 61.821 40.0236 61.9618 40.6731 61.9618C41.2074 61.9618 41.7429 61.8666 42.2591 61.6748L99.0201 40.5936H99.0203C101.38 39.717 102.589 37.0764 101.716 34.7072ZM81.0924 6.45579L63.486 31.7246L33.7373 24.0436L81.0924 6.45579ZM29.7555 27.7462L39.8525 55.1462L53.1402 33.7846L29.7555 27.7462ZM44.7969 55.8474L57.7764 34.9814L63.8809 36.5578C64.0703 36.606 64.262 36.6312 64.4491 36.6312C65.1838 36.6312 65.8866 36.2738 66.3201 35.653L69.9326 30.4642L93.3147 37.8278L44.7969 55.8474ZM86.5161 6.66279L72.6778 26.5276L96.6171 34.0666L86.5161 6.66279Z" fill="black"/>
<path fill-rule="evenodd" clip-rule="evenodd" d="M26.5838 59.5952C26.1467 58.4086 24.8335 57.803 23.6523 58.2416L15.0536 61.4352C13.8717 61.8744 13.2682 63.192 13.7053 64.3784C14.046 65.303 14.9177 65.8748 15.8455 65.8748C16.1083 65.8748 16.376 65.8288 16.637 65.7318L25.2353 62.5382C26.4177 62.0996 27.0211 60.7818 26.5838 59.5952Z" fill="black"/>
<path fill-rule="evenodd" clip-rule="evenodd" d="M14.9459 38.3292C14.5085 37.1426 13.1958 36.5372 12.0142 36.9756L6.70645 38.947C5.52448 39.3862 4.92105 40.7036 5.35813 41.8902C5.6988 42.8146 6.57078 43.3866 7.49834 43.3866C7.76111 43.3866 8.02886 43.3406 8.28984 43.2436L13.5976 41.2722C14.7796 40.8336 15.3832 39.5158 14.9459 38.3292Z" fill="black"/>
<path fill-rule="evenodd" clip-rule="evenodd" d="M8.36614 55.6816C7.92866 54.495 6.616 53.8892 5.43444 54.328L1.49051 55.7928C0.30854 56.232 -0.294893 57.5496 0.142193 58.736C0.482857 59.6604 1.35464 60.2324 2.2824 60.2324C2.54517 60.2324 2.81292 60.1864 3.0739 60.0894L7.01783 58.6246C8.19999 58.1858 8.80343 56.8682 8.36614 55.6816Z" fill="black"/>
</svg>
